<svg width="24" height="22" viewBox="0 0 24 22" fill="none" xmlns="http://www.w3.org/2000/svg">
<path d="M20.52 16.9561C19.4888 17.8289 17.9943 18.455 16.0366 18.8341C14.0788 19.2133 12.0613 19.3242 9.98393 19.1668L6.03851 22V18.4585C4.73831 18.0722 3.72207 17.5714 2.98978 16.9561C2.12298 16.2263 1.45046 15.1782 0.972232 13.8117C0.493999 12.4452 0.254883 11.0501 0.254883 9.62634C0.254883 8.2026 0.493999 6.80748 0.972232 5.44098C1.45046 4.07447 2.12672 3.02276 3.00098 2.28585C3.87525 1.54894 5.12688 0.98374 6.75586 0.590244C8.38484 0.196748 10.0512 0 11.7549 0C13.4586 0 15.1249 0.196748 16.7539 0.590244C18.3829 0.98374 19.6345 1.54894 20.5088 2.28585C21.3831 3.02276 22.0593 4.07447 22.5375 5.44098C23.0158 6.80748 23.2549 8.2026 23.2549 9.62634C23.2549 11.0501 23.0158 12.4452 22.5375 13.8117C22.0593 15.1782 21.3868 16.2263 20.52 16.9561ZM14.5794 11.6976L16.0366 11.9337C15.917 10.2166 15.2258 8.74992 13.963 7.53366C12.7001 6.3174 11.172 5.65203 9.37866 5.53756L9.62525 6.93268C10.9105 7.09008 12.0164 7.61236 12.943 8.49951C13.8696 9.38667 14.4151 10.4527 14.5794 11.6976ZM9.87184 8.37073L10.1408 9.9161C10.7386 10.2023 11.1795 10.6244 11.4635 11.1824L13.0775 11.44C12.8982 10.6816 12.5171 10.027 11.9342 9.4761C11.3514 8.9252 10.6639 8.55675 9.87184 8.37073ZM7.47321 9.63707V8.26341C7.47321 8.02016 7.3798 7.77691 7.19299 7.53366C7.00618 7.29041 6.80816 7.11512 6.59894 7.0078C6.38971 6.90049 6.23279 6.88976 6.12818 6.97561L5.09699 7.98439C4.51414 8.54244 4.42821 9.41171 4.83919 10.5922C5.25017 11.7727 6.03477 12.9174 7.19299 14.0263C8.35121 15.1353 9.54679 15.8865 10.7797 16.28C12.0127 16.6735 12.9131 16.5912 13.481 16.0332L14.5346 15.0244C14.6392 14.9385 14.6355 14.7919 14.5234 14.5844C14.4113 14.3769 14.2282 14.1873 13.9742 14.0156C13.7201 13.8439 13.4661 13.758 13.212 13.758H11.7773L10.9479 14.4449C10.2903 14.2732 9.47207 13.7187 8.49319 12.7815C7.5143 11.8442 6.93519 11.0537 6.75586 10.4098L7.47321 9.63707ZM8.9079 2.76878L9.13208 4.1639C10.6266 4.19252 12.0089 4.56813 13.2792 5.29073C14.5496 6.01333 15.5583 6.97919 16.3056 8.18829C17.0528 9.3974 17.4488 10.7174 17.4937 12.1483L18.9508 12.3844C18.9508 11.0823 18.6855 9.8374 18.155 8.64976C17.6244 7.46211 16.9108 6.43902 16.0141 5.58049C15.1175 4.72195 14.0489 4.0387 12.8085 3.53073C11.5681 3.02276 10.2679 2.76878 8.9079 2.76878Z" fill="#999"/>
</svg>
