<svg width="23" height="23" viewBox="0 0 23 23" fill="none" xmlns="http://www.w3.org/2000/svg">
<path fill-rule="evenodd" clip-rule="evenodd" d="M22.3557 11.0504C22.3557 17.153 17.4079 22.1009 11.3053 22.1009C5.20271 22.1009 0.254883 17.153 0.254883 11.0504C0.254883 4.94783 5.20271 0 11.3053 0C17.4079 0 22.3557 4.94783 22.3557 11.0504ZM11.7013 8.15798C10.6266 8.6046 8.47825 9.53008 5.25705 10.9335C4.73399 11.1416 4.45957 11.3451 4.43471 11.544C4.39235 11.8811 4.81411 12.0137 5.38689 12.1932C5.46516 12.2181 5.5462 12.243 5.62908 12.2706C6.19357 12.4538 6.95237 12.6684 7.3465 12.6767C7.70472 12.6841 8.10437 12.5367 8.54547 12.2347C11.5549 10.2023 13.1084 9.17554 13.206 9.15344C13.2751 9.13779 13.3708 9.11753 13.4353 9.17554C13.4997 9.23264 13.4933 9.3413 13.4869 9.37077C13.4445 9.54849 11.7925 11.0854 10.936 11.8811C10.669 12.1288 10.4802 12.3047 10.4415 12.3452C10.355 12.4345 10.2666 12.5201 10.1819 12.6021C9.65696 13.1067 9.26467 13.4861 10.204 14.105C10.6552 14.4024 11.0162 14.6483 11.3762 14.8932C11.7694 15.1612 12.1617 15.4282 12.67 15.7616C12.799 15.8463 12.9224 15.9338 13.043 16.0194C13.5007 16.3464 13.9123 16.6392 14.4206 16.5931C14.7153 16.5655 15.021 16.2883 15.1757 15.4605C15.5413 13.5027 16.2614 9.26303 16.4281 7.51522C16.4383 7.3701 16.4321 7.2243 16.4097 7.08056C16.3963 6.96447 16.3398 6.85765 16.2513 6.78128C16.1196 6.67354 15.9152 6.65052 15.8231 6.65236C15.4078 6.65973 14.7705 6.88166 11.7013 8.15798Z" fill="#999"/>
</svg>
