<svg width="23" height="22" viewBox="0 0 23 22" fill="none" xmlns="http://www.w3.org/2000/svg">
<path d="M11.9424 20.625C10.1663 20.625 8.49772 20.1953 6.93652 19.3359L0.254883 22L2.91895 15.3184C2.05957 13.7572 1.62988 12.0885 1.62988 10.3125C1.62988 8.90885 1.90202 7.57324 2.44629 6.30566C2.99056 5.03809 3.72461 3.94238 4.64844 3.01855C5.57227 2.09473 6.66797 1.36068 7.93555 0.816406C9.20312 0.272135 10.5387 0 11.9424 0C13.346 0 14.6816 0.272135 15.9492 0.816406C17.2168 1.36068 18.3125 2.09473 19.2363 3.01855C20.1602 3.94238 20.8942 5.03809 21.4385 6.30566C21.9827 7.57324 22.2549 8.90885 22.2549 10.3125C22.2549 11.7161 21.9827 13.0518 21.4385 14.3193C20.8942 15.5869 20.1602 16.6826 19.2363 17.6064C18.3125 18.5303 17.2168 19.2643 15.9492 19.8086C14.6816 20.3529 13.346 20.625 11.9424 20.625ZM15.3799 12.375H14.0049L13.2314 13.0625C12.5869 12.8906 11.7956 12.3356 10.8574 11.3975C9.91927 10.4593 9.36426 9.66797 9.19238 9.02344L9.87988 8.25V6.875C9.87988 6.63151 9.79395 6.38802 9.62207 6.14453C9.4502 5.90104 9.26042 5.72559 9.05273 5.61816C8.84505 5.51074 8.69824 5.5 8.6123 5.58594L7.60254 6.5957C7.04395 7.1543 6.96159 8.02441 7.35547 9.20605C7.74935 10.3877 8.5013 11.5335 9.61133 12.6436C10.7214 13.7536 11.8672 14.5055 13.0488 14.8994C14.2305 15.2933 15.1006 15.2109 15.6592 14.6523L16.6689 13.6426C16.7549 13.5566 16.7441 13.4098 16.6367 13.2021C16.5293 12.9945 16.3538 12.8047 16.1104 12.6328C15.8669 12.4609 15.6234 12.375 15.3799 12.375Z" fill="#4EB543"/>
</svg>
